<svg xmlns="http://www.w3.org/2000/svg" viewBox="0 0 32 32" fill="none">
  <defs>
    <linearGradient id="g" x1="4" y1="3" x2="28" y2="29" gradientUnits="userSpaceOnUse">
      <stop stop-color="#2563EB"/>
      <stop offset="1" stop-color="#7C3AED"/>
    </linearGradient>
  </defs>
  <rect width="32" height="32" rx="7" fill="url(#g)"/>
  <path d="M8 10c0-2.2 1.8-4 4-4h8c2.2 0 4 1.8 4 4v6c0 2.2-1.8 4-4 4h-3l-3 3v-3H12c-2.2 0-4-1.8-4-4v-6z" fill="#fff"/>
  <circle cx="13" cy="13" r="1.6" fill="#2563EB"/>
  <circle cx="16" cy="13" r="1.6" fill="#10B981"/>
  <circle cx="19" cy="13" r="1.6" fill="#F97316"/>
  <path d="M19.5 8.5l3 3 .5 2.5-2.5-.5-3-3 2-2z" fill="#FBBF24"/>
</svg>
